<svg width="99" height="32" viewBox="0 0 99 32" fill="none"
  xmlns="http://www.w3.org/2000/svg">
  <g clip-path="url(#clip0_9581_165880)">
    <path d="M98.9474 20.7006V2.701C98.9474 1.20997 97.7302 0 96.2304 0H87.4325H2.71699C1.21714 0 0 1.20997 0 2.701V29.299C0 30.79 1.21714 32 2.71699 32H86.6203C87.2911 32 87.938 31.7523 88.4388 31.3069L98.0489 22.7084C98.6191 22.1964 98.9474 21.4651 98.9474 20.7006Z" fill="#46B2C8"/>
    <path d="M24.3666 25.2683H20.593C19.3951 25.2683 18.4199 24.2989 18.4199 23.108V8.8908C18.4199 7.69988 19.3951 6.73047 20.593 6.73047H24.3642C25.5622 6.73047 26.5374 7.69988 26.5374 8.8908V23.1056C26.5398 24.2989 25.5646 25.2683 24.3666 25.2683ZM20.593 8.52161C20.3894 8.52161 20.2217 8.68596 20.2217 8.8908V23.1056C20.2217 23.3081 20.387 23.4748 20.593 23.4748H24.3642C24.5679 23.4748 24.7356 23.3104 24.7356 23.1056V8.8908C24.7356 8.68834 24.5703 8.52161 24.3642 8.52161H20.593Z" fill="#C7E8EF"/>
    <path d="M68.9385 6.74805H67.1367V25.2549H68.9385V6.74805Z" fill="white"/>
    <path d="M55.0725 8.52161V6.73047H47.8535V25.2683H55.0725V23.4748H49.6577V18.9874H52.9664V17.1963H49.6577V8.52161H55.0725Z" fill="white"/>
    <path d="M46.528 6.73828L44.4795 23.4993C44.283 24.5354 43.4061 25.2595 42.3447 25.2595C41.2833 25.2595 40.404 24.5354 40.2099 23.4993L40.2003 23.4421L38.1758 6.73828H39.9919L41.9853 23.1896C42.0404 23.4183 42.2081 23.4683 42.3447 23.4683C42.4789 23.4683 42.649 23.4183 42.7041 23.1896L44.7119 6.73828H46.528Z" fill="white"/>
    <path d="M36.9104 6.73047V23.1056C36.9104 24.2965 35.9353 25.2659 34.7373 25.2659H30.9685C29.7681 25.2659 28.793 24.2965 28.793 23.1056V6.73047H30.5947V23.1056C30.5947 23.3104 30.7624 23.4748 30.9685 23.4748H34.7373C34.9433 23.4748 35.1087 23.3081 35.1087 23.1056V6.73047H36.9104Z" fill="#C7E8EF"/>
    <path d="M78.6291 8.53181V6.73828H71.4102V25.2618H73.2143V18.9976H76.5231V17.2065H73.2143V8.53181H78.6291Z" fill="white"/>
    <path d="M15.8797 6.73047L13.3089 14.9764L10.9034 6.73047H9.02734L12.3793 18.2157V25.2516H14.181V18.2324L17.7653 6.73047H15.8797Z" fill="#C7E8EF"/>
    <path d="M85.7767 6.73047L83.2058 14.9764L80.7979 6.73047H78.9219L82.2738 18.2157V25.2516H84.0755V18.2324L87.6623 6.73047H85.7767Z" fill="white"/>
    <path d="M61.2349 18.4801C63.4535 17.5226 65.0085 15.3241 65.0085 12.7732V8.8908C65.0085 7.69988 64.0357 6.73047 62.8354 6.73047H59.0618C57.8638 6.73047 56.8887 7.69988 56.8887 8.8908V18.0918V18.9874V25.2493H58.6904V18.9898H58.7527C58.9659 18.9898 59.1768 18.9779 59.3828 18.9588L63.6093 25.254H65.78L61.2349 18.4801ZM58.6928 17.1986V8.89318C58.6928 8.68834 58.8581 8.52399 59.0618 8.52399H62.8354C63.039 8.52399 63.2044 8.69072 63.2044 8.89318V12.7756C63.2044 15.2146 61.2085 17.1986 58.7551 17.1986H58.6928Z" fill="white"/>
  </g>
  <defs>
    <clipPath id="clip0_9581_165880">
      <rect width="98.9474" height="32" fill="white"/>
    </clipPath>
  </defs>
</svg>
